<svg width="165" height="25" viewBox="0 0 165 25" fill="none" xmlns="http://www.w3.org/2000/svg">
    <path
        d="M21.504 13.06C21.328 14.612 20.792 15.98 19.896 17.164C19 18.332 17.816 19.244 16.344 19.9C14.872 20.556 13.2 20.884 11.328 20.884C9.248 20.884 7.424 20.492 5.856 19.708C4.304 18.924 3.096 17.828 2.232 16.42C1.368 15.012 0.936 13.372 0.936 11.5C0.936 9.628 1.368 7.988 2.232 6.58C3.096 5.172 4.304 4.076 5.856 3.292C7.424 2.508 9.248 2.116 11.328 2.116C13.2 2.116 14.872 2.444 16.344 3.1C17.816 3.756 19 4.668 19.896 5.836C20.792 7.004 21.328 8.372 21.504 9.94H16.944C16.784 9.124 16.456 8.428 15.96 7.852C15.48 7.276 14.84 6.836 14.04 6.532C13.256 6.212 12.344 6.052 11.304 6.052C10.104 6.052 9.072 6.276 8.208 6.724C7.344 7.156 6.68 7.78 6.216 8.596C5.752 9.412 5.52 10.38 5.52 11.5C5.52 12.62 5.752 13.588 6.216 14.404C6.68 15.22 7.344 15.852 8.208 16.3C9.072 16.732 10.104 16.948 11.304 16.948C12.344 16.948 13.256 16.796 14.04 16.492C14.84 16.188 15.48 15.748 15.96 15.172C16.456 14.596 16.784 13.892 16.944 13.06H21.504ZM31.6502 20.884C29.9222 20.884 28.4102 20.58 27.1142 19.972C25.8182 19.364 24.8102 18.516 24.0902 17.428C23.3702 16.34 23.0102 15.084 23.0102 13.66C23.0102 12.22 23.3702 10.964 24.0902 9.892C24.8102 8.804 25.8182 7.956 27.1142 7.348C28.4262 6.74 29.9382 6.436 31.6502 6.436C33.3782 6.436 34.8902 6.74 36.1862 7.348C37.4982 7.956 38.5142 8.804 39.2342 9.892C39.9542 10.964 40.3142 12.22 40.3142 13.66C40.3142 15.1 39.9542 16.364 39.2342 17.452C38.5142 18.524 37.4982 19.364 36.1862 19.972C34.8902 20.58 33.3782 20.884 31.6502 20.884ZM31.6502 17.524C32.5302 17.524 33.2742 17.372 33.8822 17.068C34.5062 16.748 34.9782 16.3 35.2982 15.724C35.6342 15.148 35.8022 14.46 35.8022 13.66C35.8022 12.86 35.6342 12.172 35.2982 11.596C34.9782 11.02 34.5062 10.58 33.8822 10.276C33.2742 9.956 32.5302 9.796 31.6502 9.796C30.8022 9.796 30.0662 9.956 29.4422 10.276C28.8182 10.58 28.3382 11.02 28.0022 11.596C27.6662 12.172 27.4982 12.86 27.4982 13.66C27.4982 14.46 27.6662 15.148 28.0022 15.724C28.3382 16.3 28.8182 16.748 29.4422 17.068C30.0662 17.372 30.8022 17.524 31.6502 17.524ZM48.3579 20.86C47.0779 20.86 45.9899 20.604 45.0939 20.092C44.1979 19.564 43.5099 18.82 43.0299 17.86C42.5659 16.9 42.3339 15.764 42.3339 14.452V6.82H46.7979V13.804C46.7979 14.908 47.0619 15.756 47.5899 16.348C48.1179 16.94 48.8779 17.236 49.8699 17.236C50.6059 17.236 51.2299 17.084 51.7419 16.78C52.2539 16.476 52.6459 16.036 52.9179 15.46C53.2059 14.884 53.3499 14.204 53.3499 13.42L54.7419 14.164C54.5819 15.604 54.1979 16.828 53.5899 17.836C52.9979 18.828 52.2459 19.58 51.3339 20.092C50.4379 20.604 49.4459 20.86 48.3579 20.86ZM54.2139 20.5L53.3499 15.172V6.82H57.8139V15.844L58.6779 20.5H54.2139ZM60.2529 6.82H64.7649L65.5809 11.74V20.5H61.1169V11.38L60.2529 6.82ZM72.1089 6.628V10.468C71.6769 10.372 71.2449 10.3 70.8129 10.252C70.3969 10.204 70.0129 10.18 69.6609 10.18C68.8929 10.18 68.1969 10.34 67.5729 10.66C66.9649 10.964 66.4769 11.452 66.1089 12.124C65.7569 12.796 65.5809 13.668 65.5809 14.74L64.6929 13.636C64.8049 12.66 64.9889 11.74 65.2449 10.876C65.5009 10.012 65.8529 9.252 66.3009 8.596C66.7489 7.924 67.3009 7.396 67.9569 7.012C68.6289 6.628 69.4369 6.436 70.3809 6.436C70.6529 6.436 70.9409 6.452 71.2449 6.484C71.5489 6.516 71.8369 6.564 72.1089 6.628ZM89.0589 16.108C89.0589 17.132 88.7549 18.004 88.1469 18.724C87.5549 19.428 86.6829 19.964 85.5309 20.332C84.3789 20.7 82.9789 20.884 81.3309 20.884C79.6509 20.884 78.1789 20.676 76.9149 20.26C75.6509 19.844 74.6669 19.26 73.9629 18.508C73.2589 17.756 72.8829 16.884 72.8349 15.892H77.3709C77.4669 16.292 77.6909 16.644 78.0429 16.948C78.4109 17.252 78.8829 17.484 79.4589 17.644C80.0349 17.788 80.7149 17.86 81.4989 17.86C82.5549 17.86 83.3549 17.748 83.8989 17.524C84.4429 17.3 84.7149 16.964 84.7149 16.516C84.7149 16.18 84.5149 15.924 84.1149 15.748C83.7309 15.572 83.0349 15.444 82.0269 15.364L79.5309 15.172C77.9629 15.06 76.7149 14.812 75.7869 14.428C74.8589 14.044 74.1949 13.556 73.7949 12.964C73.4109 12.372 73.2189 11.708 73.2189 10.972C73.2189 9.964 73.5309 9.124 74.1549 8.452C74.7949 7.78 75.6749 7.276 76.7949 6.94C77.9149 6.604 79.2269 6.436 80.7309 6.436C82.2349 6.436 83.5709 6.636 84.7389 7.036C85.9229 7.436 86.8669 7.988 87.5709 8.692C88.2909 9.396 88.6989 10.22 88.7949 11.164H84.2589C84.1949 10.844 84.0189 10.548 83.7309 10.276C83.4589 10.004 83.0589 9.788 82.5309 9.628C82.0189 9.452 81.3469 9.364 80.5149 9.364C79.5709 9.364 78.8509 9.468 78.3549 9.676C77.8589 9.884 77.6109 10.188 77.6109 10.588C77.6109 10.892 77.7629 11.132 78.0669 11.308C78.3709 11.484 78.9469 11.612 79.7949 11.692L83.0349 11.932C84.5709 12.06 85.7709 12.308 86.6349 12.676C87.5149 13.028 88.1389 13.492 88.5069 14.068C88.8749 14.644 89.0589 15.324 89.0589 16.108ZM91.2759 6.628L93.4839 7.084L95.7159 6.628V20.5H91.2759V6.628ZM93.5079 5.38C92.7239 5.38 92.0839 5.18 91.5879 4.78C91.0919 4.364 90.8439 3.82 90.8439 3.148C90.8439 2.46 91.0919 1.916 91.5879 1.516C92.0839 1.116 92.7239 0.915999 93.5079 0.915999C94.3079 0.915999 94.9479 1.116 95.4279 1.516C95.9079 1.916 96.1479 2.46 96.1479 3.148C96.1479 3.82 95.9079 4.364 95.4279 4.78C94.9479 5.18 94.3079 5.38 93.5079 5.38ZM107.924 4.972C106.836 4.972 106.06 5.18 105.596 5.596C105.148 6.012 104.924 6.668 104.924 7.564V20.5H100.46V7.828C100.46 6.532 100.716 5.428 101.228 4.516C101.74 3.588 102.508 2.876 103.532 2.38C104.572 1.884 105.86 1.636 107.396 1.636C108.1 1.636 108.724 1.692 109.268 1.804C109.812 1.9 110.38 2.036 110.972 2.212V5.524C110.492 5.348 110.004 5.212 109.508 5.116C109.012 5.02 108.484 4.972 107.924 4.972ZM97.6524 11.236V7.9H110.66V11.236H97.6524ZM116.405 24.844C115.445 24.844 114.589 24.724 113.837 24.484C113.101 24.244 112.381 23.884 111.677 23.404V20.26C112.397 20.724 113.069 21.052 113.693 21.244C114.333 21.452 115.029 21.556 115.781 21.556C116.453 21.556 117.037 21.412 117.533 21.124C118.045 20.836 118.469 20.308 118.805 19.54L124.277 6.82H129.005L122.309 20.932C121.861 21.892 121.325 22.66 120.701 23.236C120.077 23.812 119.397 24.22 118.661 24.46C117.941 24.716 117.189 24.844 116.405 24.844ZM116.933 19.42L111.005 6.82H115.901L121.229 19.42H116.933Z"
        fill="white" />
    <path
        d="M132.527 20.74C132.047 20.74 131.607 20.628 131.207 20.404C130.823 20.164 130.519 19.852 130.295 19.468C130.071 19.084 129.959 18.652 129.959 18.172C129.959 17.692 130.071 17.26 130.295 16.876C130.519 16.492 130.823 16.188 131.207 15.964C131.607 15.724 132.047 15.604 132.527 15.604C133.007 15.604 133.439 15.724 133.823 15.964C134.207 16.188 134.511 16.492 134.735 16.876C134.975 17.26 135.095 17.692 135.095 18.172C135.095 18.652 134.975 19.084 134.735 19.468C134.511 19.852 134.207 20.164 133.823 20.404C133.439 20.628 133.007 20.74 132.527 20.74ZM141 16.876V13.204H153.432V16.876H141ZM150.264 2.5L158.568 20.5H153.744L146.616 4.396H148.008L140.904 20.5H136.056L144.384 2.5H150.264ZM160.4 2.5H164.936V20.5H160.4V2.5Z"
        fill="url(#paint0_linear_132_2)" />
    <path
        d="M132.527 20.74C132.047 20.74 131.607 20.628 131.207 20.404C130.823 20.164 130.519 19.852 130.295 19.468C130.071 19.084 129.959 18.652 129.959 18.172C129.959 17.692 130.071 17.26 130.295 16.876C130.519 16.492 130.823 16.188 131.207 15.964C131.607 15.724 132.047 15.604 132.527 15.604C133.007 15.604 133.439 15.724 133.823 15.964C134.207 16.188 134.511 16.492 134.735 16.876C134.975 17.26 135.095 17.692 135.095 18.172C135.095 18.652 134.975 19.084 134.735 19.468C134.511 19.852 134.207 20.164 133.823 20.404C133.439 20.628 133.007 20.74 132.527 20.74ZM141 16.876V13.204H153.432V16.876H141ZM150.264 2.5L158.568 20.5H153.744L146.616 4.396H148.008L140.904 20.5H136.056L144.384 2.5H150.264ZM160.4 2.5H164.936V20.5H160.4V2.5Z"
        fill="url(#paint1_radial_132_2)" fill-opacity="0.75" />
    <defs>
        <linearGradient id="paint0_linear_132_2" x1="7.08723e-07" y1="1.3" x2="12.4573" y2="59.5502"
            gradientUnits="userSpaceOnUse">
            <stop stop-color="#2F76FF" />
            <stop offset="0.5" stop-color="#7270FF" />
            <stop offset="0.963542" stop-color="#FF2FF7" />
        </linearGradient>
        <radialGradient id="paint1_radial_132_2" cx="0" cy="0" r="1" gradientUnits="userSpaceOnUse"
            gradientTransform="translate(-12.525 14.65) rotate(5.79251) scale(214.018 50.1901)">
            <stop stop-color="#2FCDFF" />
            <stop offset="1" stop-color="#915CD5" stop-opacity="0.17" />
        </radialGradient>
    </defs>
</svg>
    