<svg width="32" height="32" viewBox="0 0 32 32" fill="none" xmlns="http://www.w3.org/2000/svg">
    <g clip-path="url(#clip0_101_251)">
        <path
            d="M30.6666 3.99998C29.3898 4.90062 27.9761 5.58946 26.4799 6.03998C25.6769 5.11666 24.6097 4.46224 23.4226 4.16521C22.2356 3.86819 20.9859 3.94291 19.8427 4.37925C18.6995 4.81559 17.7178 5.59252 17.0306 6.60494C16.3433 7.61736 15.9835 8.81643 15.9999 10.04V11.3733C13.6568 11.4341 11.335 10.9144 9.24126 9.86057C7.14758 8.80675 5.34701 7.25149 3.99992 5.33331C3.99992 5.33331 -1.33341 17.3333 10.6666 22.6666C7.92062 24.5306 4.64946 25.4652 1.33325 25.3333C13.3333 32 27.9999 25.3333 27.9999 9.99998C27.9987 9.62858 27.963 9.25811 27.8933 8.89331C29.2541 7.5513 30.2144 5.85693 30.6666 3.99998Z"
            stroke="#6462FF" stroke-width="3" stroke-linecap="round" stroke-linejoin="round" />
    </g>
    <defs>
        <clipPath id="clip0_101_251">
            <rect width="32" height="32" fill="white" />
        </clipPath>
    </defs>
</svg>
    