<svg width="32" height="32" viewBox="0 0 32 32" fill="none" xmlns="http://www.w3.org/2000/svg">
    <path
        d="M23.3334 8.66675H23.3467M9.33341 2.66675H22.6667C26.3486 2.66675 29.3334 5.65152 29.3334 9.33341V22.6667C29.3334 26.3486 26.3486 29.3334 22.6667 29.3334H9.33341C5.65152 29.3334 2.66675 26.3486 2.66675 22.6667V9.33341C2.66675 5.65152 5.65152 2.66675 9.33341 2.66675ZM21.3334 15.1601C21.498 16.2697 21.3084 17.403 20.7918 18.3988C20.2751 19.3945 19.4576 20.202 18.4556 20.7063C17.4536 21.2107 16.318 21.3862 15.2105 21.208C14.1029 21.0298 13.0798 20.5069 12.2865 19.7136C11.4933 18.9204 10.9704 17.8972 10.7922 16.7897C10.614 15.6822 10.7895 14.5466 11.2938 13.5446C11.7982 12.5426 12.6057 11.7251 13.6014 11.2084C14.5971 10.6917 15.7304 10.5022 16.8401 10.6667C17.972 10.8346 19.0199 11.362 19.829 12.1712C20.6381 12.9803 21.1656 14.0282 21.3334 15.1601Z"
        stroke="#6462FF" stroke-width="3" stroke-linecap="round" stroke-linejoin="round" />
</svg>
    