<svg width="32" height="32" viewBox="0 0 32 32" fill="none" xmlns="http://www.w3.org/2000/svg">
    <path
        d="M21.3334 10.6667C23.4551 10.6667 25.49 11.5096 26.9903 13.0099C28.4906 14.5102 29.3334 16.545 29.3334 18.6667V28.0001H24.0001V18.6667C24.0001 17.9595 23.7191 17.2812 23.219 16.7811C22.7189 16.281 22.0407 16.0001 21.3334 16.0001C20.6262 16.0001 19.9479 16.281 19.4478 16.7811C18.9477 17.2812 18.6667 17.9595 18.6667 18.6667V28.0001H13.3334V18.6667C13.3334 16.545 14.1763 14.5102 15.6766 13.0099C17.1769 11.5096 19.2117 10.6667 21.3334 10.6667Z"
        stroke="#6462FF" stroke-width="3" stroke-linecap="round" stroke-linejoin="round" />
    <path d="M8.00008 12.0001H2.66675V28.0001H8.00008V12.0001Z" stroke="#6462FF" stroke-width="3"
        stroke-linecap="round" stroke-linejoin="round" />
    <path
        d="M5.33341 8.00008C6.80617 8.00008 8.00008 6.80617 8.00008 5.33341C8.00008 3.86066 6.80617 2.66675 5.33341 2.66675C3.86066 2.66675 2.66675 3.86066 2.66675 5.33341C2.66675 6.80617 3.86066 8.00008 5.33341 8.00008Z"
        stroke="#6462FF" stroke-width="3" stroke-linecap="round" stroke-linejoin="round" />
</svg>
    